<?xml version="1.0" encoding="utf-8"?>
<!-- Generator: Adobe Illustrator 24.0.1, SVG Export Plug-In . SVG Version: 6.00 Build 0)  -->
<svg version="1.1" id="Слой_1" xmlns="http://www.w3.org/2000/svg" xmlns:xlink="http://www.w3.org/1999/xlink" x="0px" y="0px"
	 viewBox="0 0 223 29" style="enable-background:new 0 0 223 29;" xml:space="preserve">
<style type="text/css">
	.st0{clip-path:url(#SVGID_2_);}
	.st1{fill:#F26B36;}
	.st2{fill:#FFFFFF;}
</style>
<g>
	<defs>
		<rect id="SVGID_1_" width="223" height="28.8"/>
	</defs>
	<clipPath id="SVGID_2_">
		<use xlink:href="#SVGID_1_"  style="overflow:visible;"/>
	</clipPath>
	<g class="st0">
		<path class="st1" d="M6.6,17.2v-4.9c0-3.7,3-6.7,6.7-6.7h0.7L16.3,0h-4.8C5.1,0,0,5.2,0,11.5v5.8c0,6.3,5.1,11.4,11.4,11.4h12.1
			v-4.9H13.3C9.6,23.9,6.6,20.9,6.6,17.2z"/>
		<path class="st1" d="M19.4,0l-2.3,5.6h4.5L23.8,0H19.4z"/>
		<path class="st1" d="M29.4,0H27l-2.3,5.6h4.8h2.3L34.1,0H29.4z"/>
		<path class="st2" d="M16.9,18.4l0.4-0.7l2.9-5l2.8-4.8c0.1-0.2-0.2-0.4-0.3-0.3L18,10.7l-4.8,3.2l-0.6,0.4c0,0-0.1,0.1-0.1,0.1
			c-1,1-0.8,2.8,0.4,3.9c1.2,1.1,3,1.2,3.9,0.2C16.8,18.5,16.8,18.4,16.9,18.4z"/>
		<path class="st1" d="M44.4,0H38l-2.4,5.7H41l4.3,11h-8.5H31l-5,12h6.3l2.6-6.8h12.4l2.6,6.8h6.7L44.4,0z"/>
		<path class="st2" d="M105.8,0h5.4v28.8h-3.4v0L92.8,9.4v19.4h-5.4V0h4.4l14.1,17.8L105.8,0L105.8,0z"/>
		<path class="st2" d="M166.9,0h5.4v28.8H169v0L153.9,9.4v19.4h-5.4V0h4.4l14.1,17.8L166.9,0L166.9,0z"/>
		<path class="st2" d="M132.8,0h-5.9l-2.7,6h5.7l5.3,12.2h-10.7h-5.8L114,28.8h5.9l2.5-5.4h15l2.4,5.4h5.9L132.8,0z"/>
		<path class="st2" d="M206.9,17h15.5v-5.1h-15.5h-5.4c0,5.6,0,11.3,0,16.9H223v-5.3h-16.1L206.9,17L206.9,17z"/>
		<path class="st2" d="M201.5,0.1c0,1.8,0,3.5,0,5.3h5.4H223V0.1H201.5z"/>
		<path class="st1" d="M77.7,16.8c2-0.5,3.5-1.4,4.4-2.9c0.9-1.5,1.4-3.2,1.4-5.2c0-0.2,0-0.4,0-0.6c0-0.2,0-0.4,0-0.6
			c-0.1-1-0.3-1.9-0.7-2.9c-0.4-0.9-0.9-1.7-1.6-2.4c-0.8-0.8-1.7-1.3-2.8-1.6c-1.1-0.3-2.1-0.5-3.2-0.5c-0.3,0-0.6,0-0.9,0
			c-0.3,0-0.6,0-0.9,0H58.6v5.1h6H72v0c1.4,0,2.6,0.2,3.7,0.5c1.1,0.3,1.7,1.4,1.7,3.1c0,1.7-0.5,2.7-1.5,3.1
			c-1.1,0.4-2.2,0.6-3.5,0.6c-0.1,0-0.1,0-0.2,0c-0.1,0-0.1,0-0.2,0h-7.4h-6v16.3h6V17.4h7.1L78,28.7h6.8L77.7,16.8z"/>
		<path class="st2" d="M183.2,7.9c-0.9,1.9-1.3,4.1-1.4,6.6c0,0.4,0,0.9,0,1.3s0,0.9,0,1.3c0.1,0.9,0.3,1.8,0.5,2.7
			c0.3,0.9,0.7,1.7,1.3,2.4c0.6,0.7,1.4,1.2,2.2,1.3c0.8,0.2,1.7,0.3,2.6,0.3c0.1,0,0.1,0,0.2,0c0.1,0,0.1,0,0.2,0l9.9,0v5h-10.2
			c-1.6,0-3.2-0.1-4.7-0.4c-1.5-0.3-2.9-1-4.2-2c-1.6-1.3-2.7-2.9-3.4-4.8c-0.6-1.9-1-3.8-1-5.8c0-0.4,0-0.8,0-1.2
			c0-0.4,0-0.8,0.1-1.2c0.3-4.5,1.5-7.9,3.7-10c2.2-2.1,5.4-3.2,9.8-3.2l10,0V5h-9.9C185.9,5,184,6,183.2,7.9z"/>
	</g>
</g>
</svg>
