<?xml version="1.0" encoding="utf-8"?>
<!-- Generator: Adobe Illustrator 24.0.1, SVG Export Plug-In . SVG Version: 6.00 Build 0)  -->
<svg version="1.1" id="Слой_1" xmlns="http://www.w3.org/2000/svg" xmlns:xlink="http://www.w3.org/1999/xlink" x="0px" y="0px"
	 viewBox="0 0 24 24" style="enable-background:new 0 0 24 24;" xml:space="preserve">
<style type="text/css">
	.st0{fill:#F26B36;}
</style>
<path class="st0" d="M21.9,2.8h-0.7V2.1c0-1.2-0.9-2.1-2.1-2.1S17,0.9,17,2.1v0.7h-2.8V2.1C14.2,0.9,13.2,0,12,0S9.9,0.9,9.9,2.1
	v0.7H7V2.1C7,0.9,6.1,0,4.9,0C3.8,0,2.8,0.9,2.8,2.1v0.7H2.1C0.9,2.8,0,3.8,0,4.9c0,0.1,0,16.7,0,17C0,23.1,0.9,24,2.1,24h19.8
	c1.2,0,2.1-0.9,2.1-2.1c0-0.1,0-16.7,0-17C24,3.8,23.1,2.8,21.9,2.8z M18.4,2.1c0-0.4,0.3-0.7,0.7-0.7c0.4,0,0.7,0.3,0.7,0.7v2.8
	c0,0.4-0.3,0.7-0.7,0.7c-0.4,0-0.7-0.3-0.7-0.7V2.1z M11.3,2.1c0-0.4,0.3-0.7,0.7-0.7s0.7,0.3,0.7,0.7v2.8c0,0.4-0.3,0.7-0.7,0.7
	s-0.7-0.3-0.7-0.7V2.1z M4.2,2.1c0-0.4,0.3-0.7,0.7-0.7c0.4,0,0.7,0.3,0.7,0.7v2.8c0,0.4-0.3,0.7-0.7,0.7c-0.4,0-0.7-0.3-0.7-0.7
	V2.1z M22.6,21.9c0,0.4-0.3,0.7-0.7,0.7H2.1c-0.4,0-0.7-0.3-0.7-0.7v-12h21.2V21.9z M22.6,8.5H1.4V4.9c0-0.4,0.3-0.7,0.7-0.7h0.7
	v0.7C2.8,6.1,3.8,7,4.9,7C6.1,7,7,6.1,7,4.9V4.2h2.9v0.7C9.9,6.1,10.9,7,12,7s2.1-0.9,2.1-2.1V4.2H17v0.7C17,6.1,17.9,7,19.1,7
	s2.1-0.9,2.1-2.1V4.2h0.7c0.4,0,0.7,0.3,0.7,0.7V8.5z"/>
<path class="st0" d="M20.5,11.3h-17c-0.4,0-0.7,0.3-0.7,0.7v8.4c0,0.4,0.3,0.7,0.7,0.7h17c0.4,0,0.7-0.3,0.7-0.7V12
	C21.2,11.7,20.9,11.3,20.5,11.3z M7,19.8H4.2V17H7V19.8z M7,15.6H4.2v-2.8H7V15.6z M11.3,19.8H8.4V17h2.9V19.8z M11.3,15.6H8.4v-2.8
	h2.9V15.6z M15.6,19.8h-2.8V17h2.8V19.8z M15.6,15.6h-2.8v-2.8h2.8V15.6z M19.8,19.8H17V17h2.8V19.8z M19.8,15.6H17v-2.8h2.8V15.6z"
	/>
</svg>
