<?xml version="1.0" encoding="utf-8"?>
<!-- Generator: Adobe Illustrator 24.0.1, SVG Export Plug-In . SVG Version: 6.00 Build 0)  -->
<svg version="1.1" id="Слой_1" xmlns="http://www.w3.org/2000/svg" xmlns:xlink="http://www.w3.org/1999/xlink" x="0px" y="0px"
	 viewBox="0 0 26 25" style="enable-background:new 0 0 26 25;" xml:space="preserve">
<style type="text/css">
	.st0{fill:#F26B36;}
</style>
<path class="st0" d="M19,9.3L19,9.3c-0.4-2.2-1.8-4.1-3.8-4.8V1.7c0-0.4-0.3-0.7-0.7-0.7h-3c-0.4,0-0.7,0.3-0.7,0.7v2.7
	C8.8,5.2,7.3,7.1,7,9.3H7c-0.4,0-0.7,0.3-0.7,0.7c0,0.4,0.3,0.7,0.7,0.7h0v13.6C7,24.7,7.3,25,7.7,25h10.5c0.4,0,0.7-0.3,0.7-0.7
	V10.7h0c0.4,0,0.7-0.3,0.7-0.7C19.7,9.6,19.4,9.3,19,9.3z M12.2,2.4h1.6v1.7C13.5,4,13.3,4,13,4c-0.3,0-0.5,0-0.8,0.1V2.4z M13,5.4
	c2.3,0,4.2,1.7,4.5,3.9h-9C8.8,7.1,10.7,5.4,13,5.4z M17.5,23.6H8.4V22h9.1L17.5,23.6L17.5,23.6z M17.5,20.6H8.4v-9.9h9.1L17.5,20.6
	L17.5,20.6z"/>
<path class="st0" d="M19.4,4.1L18,3.2l1.4-0.9c0.3-0.2,0.4-0.7,0.2-1c-0.2-0.3-0.7-0.4-1-0.2l-2.3,1.5C16.2,2.8,16,3,16,3.2
	c0,0.2,0.1,0.4,0.3,0.6l2.3,1.5c0.3,0.2,0.8,0.1,1-0.2C19.8,4.8,19.7,4.3,19.4,4.1z"/>
</svg>
