<?xml version="1.0" encoding="utf-8"?>
<!-- Generator: Adobe Illustrator 24.0.1, SVG Export Plug-In . SVG Version: 6.00 Build 0)  -->
<svg version="1.1" id="Слой_1" xmlns="http://www.w3.org/2000/svg" xmlns:xlink="http://www.w3.org/1999/xlink" x="0px" y="0px"
	 viewBox="0 0 18 24" style="enable-background:new 0 0 18 24;" xml:space="preserve">
<style type="text/css">
	.st0{fill:#F26B36;}
</style>
<path class="st0" d="M9,0C4.3,0,0.6,3.8,0.6,8.4c0,1.6,0.4,3.1,1.3,4.4l6.7,10.8C8.6,23.8,8.9,24,9.1,24c0,0,0,0,0,0
	c0.2,0,0.5-0.1,0.6-0.3l6.5-10.9c0.8-1.3,1.2-2.8,1.2-4.3C17.4,3.8,13.6,0,9,0z M15,12l-5.9,9.9L3,12.1C2.3,11,2,9.7,2,8.4
	c0-3.9,3.2-7,7-7c3.9,0,7,3.2,7,7C16,9.7,15.7,10.9,15,12z"/>
<path class="st0" d="M9,4.2c-2.3,0-4.2,1.9-4.2,4.2c0,2.3,1.9,4.2,4.2,4.2c2.4,0,4.2-1.9,4.2-4.2C13.2,6.1,11.3,4.2,9,4.2z M9,11.2
	c-1.6,0-2.8-1.3-2.8-2.8c0-1.5,1.3-2.8,2.8-2.8c1.5,0,2.8,1.3,2.8,2.8C11.8,10,10.6,11.2,9,11.2z"/>
</svg>
