<?xml version="1.0" encoding="utf-8"?>
<!-- Generator: Adobe Illustrator 24.0.1, SVG Export Plug-In . SVG Version: 6.00 Build 0)  -->
<svg version="1.1" id="Слой_1" xmlns="http://www.w3.org/2000/svg" xmlns:xlink="http://www.w3.org/1999/xlink" x="0px" y="0px"
	 viewBox="0 0 469 469" style="enable-background:new 0 0 469 469;" xml:space="preserve">
<path d="M440.3,192.2h-405c-17.7,0-32,14.3-32,32v21.3c0,17.7,14.3,32,32,32h405c17.7,0,32-14.3,32-32v-21.3
	C472.2,206.5,457.9,192.2,440.3,192.2z"/>
<path d="M195.1,32v405c0,17.7,14.3,32,32,32h21.3c17.7,0,32-14.3,32-32V32c0-17.7-14.3-32-32-32l-21.3,0
	C209.4,0,195.1,14.3,195.1,32z"/>
</svg>
