<?xml version="1.0" encoding="utf-8"?>
<!-- Generator: Adobe Illustrator 24.0.1, SVG Export Plug-In . SVG Version: 6.00 Build 0)  -->
<svg version="1.1" id="Слой_1" xmlns="http://www.w3.org/2000/svg" xmlns:xlink="http://www.w3.org/1999/xlink" x="0px" y="0px"
	 viewBox="0 0 55 46" style="enable-background:new 0 0 55 46;" xml:space="preserve">
<style type="text/css">
	.st0{fill:#7E7E7E;}
</style>
<path class="st0" d="M12.2,31.3c-4,0-7.3,3.3-7.3,7.3c0,0.9,0.2,1.8,0.5,2.6l1.5-0.6c-0.3-0.6-0.4-1.3-0.4-2c0-3.1,2.5-5.7,5.7-5.7
	c3.1,0,5.7,2.5,5.7,5.7c0,3.1-2.5,5.7-5.7,5.7c-0.9,0-1.7-0.2-2.5-0.6L9,45.1c1,0.5,2.1,0.7,3.2,0.7c4,0,7.3-3.3,7.3-7.3
	S16.2,31.3,12.2,31.3z"/>
<path class="st0" d="M7.6,41.9l-1.3,0.9c0.4,0.5,0.8,0.9,1.2,1.3l1-1.2C8.2,42.6,7.9,42.2,7.6,41.9z"/>
<path class="st0" d="M12.2,41.5c1.6,0,3-1.3,3-3c0-1.6-1.3-3-3-3s-3,1.3-3,3C9.3,40.2,10.6,41.5,12.2,41.5z M12.2,37.2
	c0.7,0,1.3,0.6,1.3,1.3c0,0.7-0.6,1.3-1.3,1.3s-1.3-0.6-1.3-1.3C10.9,37.8,11.5,37.2,12.2,37.2z"/>
<path class="st0" d="M37.3,41.9L36,42.8c0.4,0.5,0.8,0.9,1.2,1.3l1-1.2C37.9,42.6,37.6,42.2,37.3,41.9z"/>
<path class="st0" d="M41.9,31.3c-4,0-7.3,3.3-7.3,7.3c0,0.9,0.2,1.8,0.5,2.6l1.5-0.6c-0.3-0.6-0.4-1.3-0.4-2c0-3.1,2.5-5.7,5.7-5.7
	c3.1,0,5.7,2.5,5.7,5.7c0,3.1-2.5,5.7-5.7,5.7c-0.9,0-1.7-0.2-2.5-0.6l-0.7,1.5c1,0.5,2.1,0.7,3.2,0.7c4,0,7.3-3.3,7.3-7.3
	S45.9,31.3,41.9,31.3z"/>
<path class="st0" d="M41.9,41.5c1.6,0,3-1.3,3-3c0-1.6-1.3-3-3-3s-3,1.3-3,3C39,40.2,40.3,41.5,41.9,41.5z M41.9,37.2
	c0.7,0,1.3,0.6,1.3,1.3c0,0.7-0.6,1.3-1.3,1.3s-1.3-0.6-1.3-1.3C40.6,37.8,41.2,37.2,41.9,37.2z"/>
<path class="st0" d="M46,27.7h1.6v1.6H46V27.7z"/>
<path class="st0" d="M42.8,27.7h1.6v1.6h-1.6V27.7z"/>
<path class="st0" d="M35.3,22.7h-3.5v1.6h3.5c1.6,0,3-1.3,3-3c0-0.4-0.1-0.7-0.2-1.1l-1.5-3.9c-0.4-1.1-1.5-1.9-2.8-1.9h-5.6
	c-1.6,0-3,1.3-3,3v3.9c0,1.6,1.3,3,3,3h2v-1.6h-2c-0.7,0-1.3-0.6-1.3-1.3v-3.9c0-0.7,0.6-1.3,1.3-1.3h5.6c0.6,0,1,0.3,1.3,0.9
	l1.5,3.9c0.1,0.2,0.1,0.3,0.1,0.5C36.7,22,36.1,22.7,35.3,22.7z"/>
<path class="st0" d="M20.2,14.5H6.6c-1.6,0-3,1.3-3,3v3.9c0,1.6,1.3,3,3,3h13.6c1.6,0,3-1.3,3-3v-3.9C23.1,15.9,21.8,14.5,20.2,14.5
	z M12.6,22.7h-6c-0.7,0-1.3-0.6-1.3-1.3v-3.9c0-0.7,0.6-1.3,1.3-1.3h6V22.7z M21.5,21.4c0,0.7-0.6,1.3-1.3,1.3h-6v-6.6h6
	c0.7,0,1.3,0.6,1.3,1.3V21.4z"/>
<path class="st0" d="M5.2,1.7h3.2v5.4h4.8V1.7h3.2v7.2h1.6v-5h4.3v4.3h4.8V3.9h4.3v5h1.6V2.3H18.1V0.1H3.6v8.8h1.6V1.7z M24,3.9h1.6
	v2.7H24V3.9z M10,1.7h1.6v3.8H10V1.7z"/>
<path class="st0" d="M24.1,12.5h11.2c1,0,1.9,0.6,2.2,1.5l3.8,9.2l5.1,0.5l0.2-1.6l-4.1-0.4L39,13.4c-0.6-1.5-2.1-2.5-3.7-2.5H24.1
	V12.5z"/>
<path class="st0" d="M1.6,35.4v-6.1h39.6v-1.6H1.6v-2.8H0v10.5c0,1.6,1.3,3,3,3H3v-1.6H3C2.2,36.7,1.6,36.1,1.6,35.4z"/>
<path class="st0" d="M52.3,22.6l-4.2-0.4l-0.2,1.6l4.2,0.4c0.7,0.1,1.2,0.6,1.2,1.3v1.2h-3.9v5.5h3.9v3.1c0,0.7-0.6,1.3-1.3,1.3
	h-0.9v1.6H52c1.6,0,3-1.3,3-3v-9.8C55,24,53.8,22.8,52.3,22.6z M53.4,30.7h-2.3v-2.3h2.3V30.7z"/>
<path class="st0" d="M1.6,13.8c0-0.7,0.6-1.3,1.3-1.3h19.5v-1.6H3c-1.6,0-3,1.3-3,3v9.4h1.6V13.8z"/>
<path class="st0" d="M21.4,36.7h11.3v1.6H21.4V36.7z"/>
<path class="st0" d="M30.3,35.1h-3.2v-1.6h3.2V35.1z M25.5,35.1h-1.6v-1.6h1.6V35.1z"/>
</svg>
