<?xml version="1.0" encoding="utf-8"?>
<!-- Generator: Adobe Illustrator 24.0.1, SVG Export Plug-In . SVG Version: 6.00 Build 0)  -->
<svg version="1.1" id="Слой_1" xmlns="http://www.w3.org/2000/svg" xmlns:xlink="http://www.w3.org/1999/xlink" x="0px" y="0px"
	 viewBox="0 0 24 24" style="enable-background:new 0 0 24 24;" xml:space="preserve">
<style type="text/css">
	.st0{fill:#F26B36;}
</style>
<path class="st0" d="M6.2,1.5H3.8C3.3,1.5,3,1.2,3,0.8S3.3,0,3.8,0h4.5C8.3,0,9,0,9,0.8v4.5C9,5.7,8.7,6,8.2,6
	C7.8,6,7.5,5.7,7.5,5.2V2.5c-3.5,1.7-6,5.3-6,9.5c0,5.8,4.7,10.5,10.5,10.5c5.8,0,10.5-4.7,10.5-10.5c0-5.1-3.6-9.3-8.4-10.3
	c-0.4-0.1-0.6-0.4-0.6-0.8c0-0.5,0.4-0.8,0.8-0.7C19.8,1.3,24,6.2,24,12c0,6.6-5.4,12-12,12C5.4,24,0,18.6,0,12
	C0,7.5,2.5,3.5,6.2,1.5z"/>
<path class="st0" d="M14.2,12.1c-0.2-0.2-0.4-0.3-0.7-0.4c-0.3-0.1-0.6-0.2-1-0.3c-0.3-0.1-0.5-0.1-0.7-0.2
	c-0.2-0.1-0.4-0.1-0.5-0.2c-0.1-0.1-0.2-0.2-0.3-0.3c-0.1-0.1-0.1-0.2-0.1-0.4c0-0.3,0.1-0.5,0.3-0.6c0.2-0.1,0.5-0.2,0.9-0.2
	c0.2,0,0.4,0,0.6,0.1c0.2,0.1,0.4,0.1,0.6,0.2c0.2,0.1,0.3,0.2,0.5,0.2c0.1,0.1,0.2,0.1,0.3,0.2l0.6-1.1c-0.3-0.2-0.7-0.4-1.1-0.6
	c-0.2-0.1-0.5-0.2-0.7-0.2V7.7C12.7,7.3,12.4,7,12,7c-0.4,0-0.7,0.3-0.7,0.7v0.6c-0.1,0-0.2,0-0.3,0.1c-0.3,0.1-0.6,0.2-0.8,0.4
	C9.9,9,9.7,9.3,9.6,9.6c-0.1,0.3-0.2,0.6-0.2,1c0,0.3,0,0.5,0.1,0.7c0.1,0.2,0.2,0.4,0.4,0.5c0.2,0.2,0.4,0.3,0.6,0.4
	c0.3,0.1,0.6,0.2,0.9,0.3c0.3,0.1,0.5,0.2,0.8,0.2c0.2,0.1,0.4,0.1,0.6,0.2c0.2,0.1,0.3,0.2,0.4,0.3c0.1,0.1,0.1,0.2,0.1,0.4
	c0,0.5-0.4,0.7-1.2,0.7c-0.3,0-0.6,0-0.8-0.1c-0.3-0.1-0.5-0.2-0.7-0.3c-0.2-0.1-0.4-0.2-0.6-0.3c-0.2-0.1-0.3-0.2-0.3-0.2l-0.6,1.2
	c0.4,0.3,0.9,0.5,1.4,0.7c0.3,0.1,0.5,0.1,0.8,0.2v0.7c0,0.4,0.3,0.7,0.7,0.7c0.4,0,0.7-0.3,0.7-0.7v-0.6c0.2,0,0.3,0,0.5-0.1
	c0.3-0.1,0.6-0.2,0.9-0.4c0.2-0.2,0.4-0.4,0.6-0.7c0.1-0.3,0.2-0.6,0.2-1c0-0.3-0.1-0.6-0.2-0.8C14.6,12.4,14.4,12.2,14.2,12.1z"/>
</svg>
