<?xml version="1.0" encoding="utf-8"?>
<!-- Generator: Adobe Illustrator 24.0.1, SVG Export Plug-In . SVG Version: 6.00 Build 0)  -->
<svg version="1.1" id="Слой_1" xmlns="http://www.w3.org/2000/svg" xmlns:xlink="http://www.w3.org/1999/xlink" x="0px" y="0px"
	 viewBox="0 0 24 18" style="enable-background:new 0 0 24 18;" xml:space="preserve">
<style type="text/css">
	.st0{fill:#F26B36;}
</style>
<path class="st0" d="M19.1,6.3L18,1.8c-0.3-1-1.2-1.8-2.3-1.8H5.1c-1.1,0-2,0.7-2.3,1.8L1.7,6.3C0.7,6.6,0,7.5,0,8.6v4.7
	c0,0.4,0.4,0.8,0.8,0.8h0.8c0,1.7,1.4,3.1,3.1,3.1c1.7,0,3.1-1.4,3.1-3.1h8.3c0,1.7,1.4,3.1,3.1,3.1c1.7,0,3.1-1.4,3.1-3.1h0.8
	c0.4,0,0.8-0.4,0.8-0.8v-1.6C24,8.9,21.9,6.6,19.1,6.3z M11.2,1.6h4.5c0.4,0,0.7,0.2,0.8,0.6l1,4.1h-6.3V1.6z M4.4,2.2
	c0.1-0.3,0.4-0.6,0.8-0.6h4.5v4.7H3.4L4.4,2.2z M4.7,15.7c-0.9,0-1.6-0.7-1.6-1.6c0-0.9,0.7-1.6,1.6-1.6c0.9,0,1.6,0.7,1.6,1.6
	S5.6,15.7,4.7,15.7z M19.3,15.7c-0.9,0-1.6-0.7-1.6-1.6c0-0.9,0.7-1.6,1.6-1.6c0.9,0,1.6,0.7,1.6,1.6S20.2,15.7,19.3,15.7z
	 M22.4,12.5H22c-0.5-0.9-1.6-1.6-2.7-1.6c-1.2,0-2.2,0.6-2.7,1.6H7.4C6.9,11.6,5.9,11,4.7,11c-1.2,0-2.2,0.6-2.7,1.6H1.6V8.6
	c0-0.4,0.4-0.8,0.8-0.8h16.2c2.2,0,3.9,1.8,3.9,3.9L22.4,12.5L22.4,12.5z"/>
<path class="st0" d="M10.3,9H8.8C8.4,9,8,9.4,8,9.8c0,0.4,0.4,0.8,0.8,0.8h1.6c0.4,0,0.8-0.4,0.8-0.8C11.1,9.4,10.8,9,10.3,9z"/>
</svg>
