<?xml version="1.0" encoding="utf-8"?>
<!-- Generator: Adobe Illustrator 24.0.1, SVG Export Plug-In . SVG Version: 6.00 Build 0)  -->
<svg version="1.1" id="Capa_1" xmlns="http://www.w3.org/2000/svg" xmlns:xlink="http://www.w3.org/1999/xlink" x="0px" y="0px"
	 viewBox="0 0 41.8 41.8" style="enable-background:new 0 0 41.8 41.8;" xml:space="preserve">
<g>
	<path d="M27.9,20.9L40.3,8.5c2-2,2-5.1,0-7.1c-2-2-5.1-2-7.1,0L20.9,13.8L8.5,1.5c-2-2-5.1-2-7.1,0c-2,2-2,5.1,0,7.1l12.3,12.3
		L1.5,33.2c-2,2-2,5.1,0,7.1c1,1,2.3,1.5,3.5,1.5c1.3,0,2.6-0.5,3.5-1.5l12.3-12.3l12.3,12.3c1,1,2.3,1.5,3.5,1.5s2.6-0.5,3.5-1.5
		c2-2,2-5.1,0-7.1L27.9,20.9z"/>
</g>
</svg>
