<?xml version="1.0" encoding="utf-8"?>
<!-- Generator: Adobe Illustrator 24.0.1, SVG Export Plug-In . SVG Version: 6.00 Build 0)  -->
<svg version="1.1" id="Слой_1" xmlns="http://www.w3.org/2000/svg" xmlns:xlink="http://www.w3.org/1999/xlink" x="0px" y="0px"
	 viewBox="0 0 20 24" style="enable-background:new 0 0 20 24;" xml:space="preserve">
<style type="text/css">
	.st0{fill:#F26B36;}
</style>
<path class="st0" d="M4.4,17H3c-1.2,0-2.1,0.9-2.1,2.1v2.8C0.9,23.1,1.8,24,3,24h1.4c1.2,0,2.1-0.9,2.1-2.1v-0.7H8
	c0.3,0.8,1.1,1.4,2,1.4c0.9,0,1.7-0.6,2-1.4h1.5v0.7c0,1.2,0.9,2.1,2.1,2.1H17c1.2,0,2.1-0.9,2.1-2.1v-2.8c0-1.2-0.9-2.1-2.1-2.1
	h-1.4c-1.2,0-2.1,0.9-2.1,2.1v0.7H12c-0.1-0.3-0.2-0.5-0.4-0.7l0.3-3.6c1-0.2,1.7-1.1,1.7-2.1v-2.9c0-1-0.7-1.9-1.7-2.1l-0.3-3.6
	c0.2-0.2,0.3-0.4,0.4-0.7h1.5v0.7c0,1.2,0.9,2.1,2.1,2.1H17c1.2,0,2.1-0.9,2.1-2.1V2.1C19.1,0.9,18.2,0,17,0h-1.4
	c-1.2,0-2.1,0.9-2.1,2.1v0.7H12c-0.3-0.8-1.1-1.4-2-1.4C9.1,1.4,8.3,2,8,2.8H6.5V2.1C6.5,0.9,5.5,0,4.4,0H3C1.8,0,0.9,0.9,0.9,2.1
	v2.8C0.9,6.1,1.8,7,3,7h1.4c1.2,0,2.1-0.9,2.1-2.1V4.2H8c0.1,0.3,0.2,0.5,0.4,0.7L8.2,8.5c-1,0.2-1.7,1.1-1.7,2.1v2.9
	c0,1,0.7,1.9,1.7,2.1l0.3,3.6c-0.2,0.2-0.3,0.4-0.4,0.7H6.5v-0.7C6.5,17.9,5.5,17,4.4,17z M14.9,19.1c0-0.4,0.3-0.7,0.7-0.7H17
	c0.4,0,0.7,0.3,0.7,0.7v2.8c0,0.4-0.3,0.7-0.7,0.7h-1.4c-0.4,0-0.7-0.3-0.7-0.7V19.1z M14.9,2.1c0-0.4,0.3-0.7,0.7-0.7H17
	c0.4,0,0.7,0.3,0.7,0.7v2.8c0,0.4-0.3,0.7-0.7,0.7h-1.4c-0.4,0-0.7-0.3-0.7-0.7V2.1z M5.1,4.9c0,0.4-0.3,0.7-0.7,0.7H3
	c-0.4,0-0.7-0.3-0.7-0.7V2.1c0-0.4,0.3-0.7,0.7-0.7h1.4c0.4,0,0.7,0.3,0.7,0.7V4.9z M10,18.4c-0.1,0-0.1,0-0.2,0l-0.2-2.8h0.9
	l-0.2,2.8C10.1,18.4,10.1,18.4,10,18.4z M10,21.2c-0.4,0-0.7-0.3-0.7-0.7c0-0.4,0.3-0.7,0.7-0.7c0.4,0,0.7,0.3,0.7,0.7
	C10.7,20.9,10.4,21.2,10,21.2z M10,5.6c0.1,0,0.1,0,0.2,0l0.2,2.9H9.6l0.2-2.9C9.9,5.6,9.9,5.6,10,5.6z M10,2.8
	c0.4,0,0.7,0.3,0.7,0.7c0,0.4-0.3,0.7-0.7,0.7c-0.4,0-0.7-0.3-0.7-0.7C9.3,3.1,9.6,2.8,10,2.8z M7.9,13.5v-2.9
	c0-0.4,0.3-0.7,0.7-0.7h2.8c0.4,0,0.7,0.3,0.7,0.7v2.9c0,0.4-0.3,0.7-0.7,0.7H8.6C8.2,14.2,7.9,13.8,7.9,13.5z M5.1,21.9
	c0,0.4-0.3,0.7-0.7,0.7H3c-0.4,0-0.7-0.3-0.7-0.7v-2.8c0-0.4,0.3-0.7,0.7-0.7h1.4c0.4,0,0.7,0.3,0.7,0.7V21.9z"/>
</svg>
