<svg xmlns="http://www.w3.org/2000/svg" viewBox="0 0 512 438.86"><title>Ресурс 2</title><g id="Слой_2" data-name="Слой 2"><g id="Capa_1" data-name="Capa 1"><path d="M435.32,55C387.24,19.53,323.55,0,256,0S124.76,19.53,76.68,55C27.23,91.45,0,140.37,0,192.73,0,237,20.3,280.21,57.17,314.35c32.21,29.82,76.11,51.89,124.8,62.94a44.65,44.65,0,0,1-42.48,31.57v30h71.28a74.46,74.46,0,0,0,71.68-54.43c60-4.61,115.6-24.87,157.7-57.62C486.48,290.76,512,243.14,512,192.73,512,140.37,484.77,91.45,435.32,55ZM421.73,303.13c-40,31.11-94.14,49.59-152.46,52l-13.06.55-1.24,13a44.19,44.19,0,0,1-44.2,40.13H199.2a74,74,0,0,0,14.67-43.2l.2-12.76-12.55-2.25c-48.77-8.74-92.8-29.45-124-58.31S30,229.08,30,192.73C30,103,131.38,30,256,30s226,73,226,162.73C482,233.68,460.59,272.89,421.73,303.13Z"/><path d="M414,148.43H114a15,15,0,0,0,0,30H414a15,15,0,0,0,0-30Z"/><path d="M414,208.43H114a15,15,0,0,0,0,30H414a15,15,0,0,0,0-30Z"/></g></g></svg>
