<?xml version="1.0" encoding="utf-8"?>
<!-- Generator: Adobe Illustrator 24.0.1, SVG Export Plug-In . SVG Version: 6.00 Build 0)  -->
<svg version="1.1" id="Слой_1" xmlns="http://www.w3.org/2000/svg" xmlns:xlink="http://www.w3.org/1999/xlink" x="0px" y="0px"
	 viewBox="0 0 24 13" style="enable-background:new 0 0 24 13;" xml:space="preserve">
<style type="text/css">
	.st0{fill:#F26B36;}
</style>
<path class="st0" d="M20.5,3.6C20.5,3.6,20.5,3.5,20.5,3.6c-0.1-0.1-0.1-0.1-0.1-0.1C18.2,1.3,15.3,0,12,0l0,0l0,0
	C8.7,0,5.8,1.3,3.6,3.5c0,0,0,0-0.1,0.1c0,0,0,0-0.1,0.1C1.3,5.8,0,8.7,0,12c0,0.4,0.3,0.8,0.8,0.8h22.5c0.4,0,0.8-0.3,0.8-0.8
	C24,8.7,22.7,5.8,20.5,3.6z M15.1,11.2h-0.5c-0.1-0.5-0.4-0.9-0.8-1.3L14,9.5C14.5,10,14.9,10.6,15.1,11.2z M12.4,9.4
	c-0.1,0-0.2,0-0.4,0c-1.2,0-2.2,0.8-2.5,1.9H8.9c0.3-1.4,1.6-2.4,3.1-2.4c0.2,0,0.4,0,0.6,0.1L12.4,9.4z M16.1,11.2
	c-0.2-1.1-0.8-2-1.7-2.6l1.8-3.7c0.2-0.4,0-0.8-0.3-1c-0.4-0.2-0.8,0-1,0.3L13,8c-0.3-0.1-0.7-0.1-1-0.1c-2,0-3.7,1.5-4.1,3.4H1.5
	c0.2-2.3,1.1-4.4,2.5-6.1l0.5,0.5c0.1,0.1,0.3,0.2,0.5,0.2c0.2,0,0.4-0.1,0.5-0.2C6,5.4,6,4.9,5.7,4.6L5.1,4.1
	c1.7-1.4,3.8-2.4,6.1-2.5v0.9c0,0.4,0.3,0.8,0.8,0.8s0.8-0.3,0.8-0.8V1.5c2.3,0.2,4.4,1.1,6.1,2.5l-0.5,0.5c-0.3,0.3-0.3,0.8,0,1.1
	c0.1,0.1,0.3,0.2,0.5,0.2c0.2,0,0.4-0.1,0.5-0.2l0.5-0.5c1.4,1.7,2.4,3.8,2.5,6.1L16.1,11.2L16.1,11.2z"/>
</svg>
