<?xml version="1.0" encoding="utf-8"?>
<!-- Generator: Adobe Illustrator 24.0.1, SVG Export Plug-In . SVG Version: 6.00 Build 0)  -->
<svg version="1.1" id="Слой_1" xmlns="http://www.w3.org/2000/svg" xmlns:xlink="http://www.w3.org/1999/xlink" x="0px" y="0px"
	 viewBox="0 0 24 20" style="enable-background:new 0 0 24 20;" xml:space="preserve">
<style type="text/css">
	.st0{fill:#F26B36;}
</style>
<path class="st0" d="M21.9,6.5h-1l-2.6-5.2c-0.1-0.2-0.4-0.4-0.6-0.4H6.3C6.1,0.9,5.8,1,5.7,1.2L3.1,6.5h-1C0.9,6.5,0,7.4,0,8.6v5.6
	c0,0.4,0.3,0.7,0.7,0.7h0.7V17c0,1.2,0.9,2.1,2.1,2.1h1.4C6.1,19.1,7,18.2,7,17v-0.7H17V17c0,1.2,0.9,2.1,2.1,2.1h1.4
	c1.2,0,2.1-0.9,2.1-2.1v-2.1h0.7c0.4,0,0.7-0.3,0.7-0.7V8.6C24,7.4,23.1,6.5,21.9,6.5z M6.8,2.3h10.5l2.1,4.2H4.7L6.8,2.3z
	 M4.9,17.7H3.5c-0.4,0-0.7-0.3-0.7-0.7v-2.1h1.8l1,1V17C5.6,17.4,5.3,17.7,4.9,17.7z M21.2,17c0,0.4-0.3,0.7-0.7,0.7h-1.4
	c-0.4,0-0.7-0.3-0.7-0.7v-1.1l1-1h1.8V17z M22.6,13.5h-3.5c-0.2,0-0.4,0.1-0.5,0.2l-1.2,1.2H6.6l-1.2-1.2c-0.1-0.1-0.3-0.2-0.5-0.2
	H1.4V8.6c0-0.4,0.3-0.7,0.7-0.7h19.8c0.4,0,0.7,0.3,0.7,0.7V13.5z"/>
<path class="st0" d="M4.2,9.3c-0.8,0-1.4,0.6-1.4,1.4c0,0.8,0.6,1.4,1.4,1.4s1.4-0.6,1.4-1.4C5.6,9.9,5,9.3,4.2,9.3z"/>
<path class="st0" d="M19.8,9.3c-0.8,0-1.4,0.6-1.4,1.4c0,0.8,0.6,1.4,1.4,1.4c0.8,0,1.4-0.6,1.4-1.4C21.2,9.9,20.6,9.3,19.8,9.3z"/>
<path class="st0" d="M16.3,9.3H7.7C7.3,9.3,7,9.6,7,10c0,0.4,0.3,0.7,0.7,0.7h8.5c0.4,0,0.7-0.3,0.7-0.7C17,9.6,16.7,9.3,16.3,9.3z"
	/>
<path class="st0" d="M14.9,12.1H9.1c-0.4,0-0.7,0.3-0.7,0.7s0.3,0.7,0.7,0.7h5.7c0.4,0,0.7-0.3,0.7-0.7S15.2,12.1,14.9,12.1z"/>
</svg>
