<?xml version="1.0" encoding="utf-8"?>
<!-- Generator: Adobe Illustrator 24.0.1, SVG Export Plug-In . SVG Version: 6.00 Build 0)  -->
<svg version="1.1" id="Слой_1" xmlns="http://www.w3.org/2000/svg" xmlns:xlink="http://www.w3.org/1999/xlink" x="0px" y="0px"
	 viewBox="0 0 16 16" style="enable-background:new 0 0 16 16;" xml:space="preserve">
<style type="text/css">
	.st0{fill:#FF2934;}
</style>
<path class="st0" d="M14.7,10.5c-1,0-1.9-0.2-2.9-0.5c-0.4-0.2-1,0-1.3,0.3l-1.8,1.4c-2.1-1.1-3.4-2.4-4.5-4.5l1.3-1.8
	C6,5.1,6.1,4.6,6,4.1C5.7,3.2,5.5,2.3,5.5,1.3C5.5,0.6,4.9,0,4.2,0H1.3C0.6,0,0,0.6,0,1.3C0,9.4,6.6,16,14.7,16
	c0.7,0,1.3-0.6,1.3-1.3v-2.9C16,11.1,15.4,10.5,14.7,10.5z"/>
</svg>
